<svg version="1.1" id="Layer_1" xmlns="http://www.w3.org/2000/svg" xmlns:xlink="http://www.w3.org/1999/xlink" x="0px" y="0px"
	 width="100%" viewBox="0 0 274 316" enable-background="new 0 0 274 316" xml:space="preserve">
<path fill="#2C7FFF" opacity="1.000000" stroke="none" 
	d="
M124.000000,254.001480 
	C112.190445,253.691833 100.746292,254.378662 89.598335,252.872757 
	C63.419151,249.336411 42.476925,225.324432 42.106293,198.872757 
	C41.725723,171.711914 41.731136,144.537827 42.092636,117.376534 
	C42.484825,87.909447 67.797447,62.523254 97.252213,62.101547 
	C124.412796,61.712688 151.587708,61.712605 178.748276,62.101601 
	C208.202972,62.523449 233.511856,87.910179 233.908234,117.377029 
	C234.271347,144.371719 234.242050,171.378082 233.924454,198.373856 
	C233.572495,228.290741 207.983170,253.587708 177.998657,253.955750 
	C160.168259,254.174606 142.333054,253.999481 124.000000,254.001480 
M189.215424,121.812508 
	C188.601364,114.403946 185.501816,111.329880 178.222885,111.149475 
	C173.562637,111.033974 168.892258,111.264702 164.235138,111.097534 
	C154.308823,110.741249 144.866684,111.652390 137.981415,120.733887 
	C131.340881,112.136147 122.537132,110.731659 113.031441,111.093933 
	C108.208794,111.277740 103.372849,111.080711 98.543846,111.136536 
	C90.159279,111.233467 86.811691,114.573608 86.790451,123.026451 
	C86.743599,141.678757 86.740517,160.331329 86.790474,178.983612 
	C86.813141,187.446075 90.159233,190.793274 98.557487,190.860001 
	C106.717415,190.924850 114.879601,190.787354 123.038208,190.910110 
	C129.123886,191.001678 131.656876,193.742050 133.230255,199.653946 
	C133.772842,201.692612 136.440643,203.165649 138.137650,204.897064 
	C139.737457,203.238129 142.261871,201.820221 142.768600,199.876343 
	C144.481277,193.306168 146.855103,190.955414 153.731613,190.891571 
	C161.391769,190.820435 169.053162,190.895721 176.713882,190.868439 
	C186.062698,190.835144 189.202118,187.672867 189.215118,178.200195 
	C189.240479,159.714371 189.221832,141.228455 189.215424,121.812508 
z"/>
<path fill="#E9F3FF" opacity="1.000000" stroke="none" 
	d="
M189.218414,122.277542 
	C189.221832,141.228455 189.240479,159.714371 189.215118,178.200195 
	C189.202118,187.672867 186.062698,190.835144 176.713882,190.868439 
	C169.053162,190.895721 161.391769,190.820435 153.731613,190.891571 
	C146.855103,190.955414 144.481277,193.306168 142.768600,199.876343 
	C142.261871,201.820221 139.737457,203.238129 138.137650,204.897064 
	C136.440643,203.165649 133.772842,201.692612 133.230255,199.653946 
	C131.656876,193.742050 129.123886,191.001678 123.038208,190.910110 
	C114.879601,190.787354 106.717415,190.924850 98.557487,190.860001 
	C90.159233,190.793274 86.813141,187.446075 86.790474,178.983612 
	C86.740517,160.331329 86.743599,141.678757 86.790451,123.026451 
	C86.811691,114.573608 90.159279,111.233467 98.543846,111.136536 
	C103.372849,111.080711 108.208794,111.277740 113.031441,111.093933 
	C122.537132,110.731659 131.340881,112.136147 137.981415,120.733887 
	C144.866684,111.652390 154.308823,110.741249 164.235138,111.097534 
	C168.892258,111.264702 173.562637,111.033974 178.222885,111.149475 
	C185.501816,111.329880 188.601364,114.403946 189.218414,122.277542 
M133.190231,176.346497 
	C133.141922,162.181274 133.193130,148.014725 133.001404,133.851440 
	C132.911575,127.216278 128.245270,121.572136 121.834518,121.173058 
	C113.420403,120.649277 104.949074,121.044518 96.277893,121.044518 
	C96.277893,141.150375 96.277893,160.887177 96.277893,181.672974 
	C108.578033,181.672974 120.624557,181.672974 133.190430,181.672974 
	C133.190430,180.874588 133.190430,179.084000 133.190231,176.346497 
M177.291733,120.881203 
	C170.292221,120.889297 163.289429,120.766693 156.294113,120.942169 
	C149.272873,121.118294 143.258972,125.807579 143.120865,132.197266 
	C142.757797,148.993988 142.998184,165.803757 142.998184,181.523376 
	C155.425537,181.523376 167.589493,181.523376 179.983749,181.523376 
	C179.983749,161.504196 180.009979,142.687119 179.909821,123.870728 
	C179.904556,122.881866 178.826645,121.898712 177.291733,120.881203 
z"/>
<path fill="#2B7FFF" opacity="1.000000" stroke="none" 
	d="
M133.190338,176.819962 
	C133.190430,179.084000 133.190430,180.874588 133.190430,181.672974 
	C120.624557,181.672974 108.578033,181.672974 96.277893,181.672974 
	C96.277893,160.887177 96.277893,141.150375 96.277893,121.044518 
	C104.949074,121.044518 113.420403,120.649277 121.834518,121.173058 
	C128.245270,121.572136 132.911575,127.216278 133.001404,133.851440 
	C133.193130,148.014725 133.141922,162.181274 133.190338,176.819962 
z"/>
<path fill="#2B7FFF" opacity="1.000000" stroke="none" 
	d="
M177.769913,120.897049 
	C178.826645,121.898712 179.904556,122.881866 179.909821,123.870728 
	C180.009979,142.687119 179.983749,161.504196 179.983749,181.523376 
	C167.589493,181.523376 155.425537,181.523376 142.998184,181.523376 
	C142.998184,165.803757 142.757797,148.993988 143.120865,132.197266 
	C143.258972,125.807579 149.272873,121.118294 156.294113,120.942169 
	C163.289429,120.766693 170.292221,120.889297 177.769913,120.897049 
z"/>
</svg>